<svg width="26" height="19" viewBox="0 0 26 19" fill="none" xmlns="http://www.w3.org/2000/svg">
<path fill-rule="evenodd" clip-rule="evenodd" d="M6.03067 0.517063V1.034L13.0559 1.0348L20.0811 1.03572L20.702 3.64416C21.0434 5.07891 21.3453 6.33967 21.3728 6.44588C21.4192 6.62458 20.9874 6.64259 15.5906 6.68675C10.7504 6.72644 9.63148 6.76566 9.0128 6.91798C5.8842 7.68772 3.54368 9.31343 1.87965 11.8729C0.753096 13.6055 0.0710979 15.7967 0.0678864 17.6938L0.0664062 18.5827H12.6831C19.6223 18.5827 25.2989 18.5439 25.2979 18.4967C25.2967 18.4494 24.2984 14.2816 23.0793 9.23486L20.8628 0.0590708L13.4468 0.0295985L6.03067 0V0.517063ZM9.3569 7.86457C6.16819 8.54828 3.54804 10.5862 2.0751 13.528C1.59887 14.4793 1.09868 16.2829 1.09868 17.049V17.5504H12.5818C23.4615 17.5504 24.0621 17.5399 24.0127 17.3497C23.984 17.2393 23.4502 15.02 22.8265 12.4177L21.6924 7.68645L15.8974 7.69551C11.4036 7.70262 9.93509 7.74058 9.3569 7.86457ZM10.0474 11.0989C8.91267 11.669 8.79728 13.2696 9.83747 14.0103C10.6087 14.5595 11.8484 14.2592 12.2834 13.418C12.8476 12.327 12.0012 10.8983 10.7906 10.8983C10.6014 10.8983 10.2669 10.9886 10.0474 11.0989ZM15.3983 11.1333C14.9368 11.3835 14.5256 12.076 14.5208 12.6109C14.5158 13.1747 14.9588 13.8509 15.5075 14.1164C16.6426 14.6659 17.8746 13.8983 17.8934 12.6299C17.9124 11.3503 16.5286 10.5203 15.3983 11.1333ZM10.3026 12.0736C9.92396 12.5469 10.2247 13.3066 10.7907 13.3066C11.3326 13.3066 11.6706 12.6687 11.371 12.2114C11.1665 11.8993 10.5098 11.8146 10.3026 12.0736ZM15.7404 12.14C15.3381 12.5845 15.6624 13.3066 16.2643 13.3066C16.5535 13.3066 16.9269 12.8966 16.9269 12.5789C16.9269 12.0089 16.1268 11.713 15.7404 12.14Z" fill="black"/>
</svg>
