<svg width="28" height="24" viewBox="0 0 28 24" fill="none" xmlns="http://www.w3.org/2000/svg">
<path fill-rule="evenodd" clip-rule="evenodd" d="M7.02044 11.8125L0.298828 23.6588L7.06034 23.6884C10.7792 23.7047 16.8676 23.7047 20.5901 23.6884L27.3581 23.6588L20.6513 11.8463C16.9625 5.34942 13.899 0.0186295 13.8432 4.85648e-05C13.7876 -0.0185324 10.7173 5.29712 7.02044 11.8125ZM8.25906 11.6368C5.23104 16.9755 2.5828 21.6451 2.37416 22.0137L1.99474 22.6839H4.85208H7.70943L12.0484 15.0278C14.4349 10.8169 16.4549 7.26545 16.5372 7.13561C16.6722 6.92262 16.5487 6.65444 15.2831 4.41429C14.511 3.04744 13.8534 1.92937 13.8219 1.92972C13.7903 1.92994 11.2871 6.2982 8.25906 11.6368ZM13.0794 15.2572C10.8185 19.2472 8.94793 22.5506 8.92247 22.5978C8.89712 22.6451 10.1568 22.6838 11.7219 22.6836L14.5674 22.6834L17.3353 17.8019L20.1032 12.9205L18.7117 10.4621C17.9463 9.10989 17.2909 8.00341 17.2552 8.00306C17.2194 8.00283 15.3404 11.2672 13.0794 15.2572ZM18.2056 18.2934C16.8632 20.6623 15.7842 22.6199 15.8077 22.6435C15.8314 22.667 18.0497 22.6729 20.7373 22.6565L25.624 22.6265L23.2141 18.3827C21.8885 16.0486 20.7686 14.1045 20.7253 14.0625C20.6818 14.0205 19.548 15.9244 18.2056 18.2934Z" fill="black"/>
</svg>
