<svg width="18" height="19" viewBox="0 0 18 19" fill="none" xmlns="http://www.w3.org/2000/svg">
<path d="M17.0601 2.10789H12.7714V1.58497C12.7714 0.711899 12.0595 0 11.1864 0H6.56248C5.68941 0 4.97751 0.709584 4.97751 1.58497V2.10789H0.688717C0.308428 2.10789 0 2.41631 0 2.7966C0 3.17689 0.308428 3.48532 0.688717 3.48532H1.68586L2.50213 17.1599C2.56474 18.193 3.42275 19 4.45465 19H13.2911C14.3242 19 15.1845 18.193 15.2436 17.1599L16.0599 3.48532H17.057C17.4373 3.48532 17.7457 3.17689 17.7457 2.7966C17.7457 2.41631 17.4373 2.10789 17.057 2.10789H17.0601ZM6.35138 1.58497C6.35138 1.46903 6.44298 1.37743 6.55892 1.37743H11.1828C11.2988 1.37743 11.3904 1.46903 11.3904 1.58497V2.10789H6.34795V1.58497H6.35138ZM13.8693 17.0732C13.8519 17.3793 13.5957 17.6193 13.2907 17.6193H4.45433C4.14824 17.6193 3.89315 17.3793 3.87576 17.0732L3.06297 3.48197H14.683L13.8702 17.0732H13.8693Z" fill="#BEBEBE"/>
<path d="M5.59372 5.24512C5.21343 5.26599 4.9224 5.59296 4.94673 5.97209L5.46617 15.103C5.48704 15.4682 5.78965 15.7534 6.15142 15.7534H6.18968C6.56997 15.7325 6.86101 15.4056 6.83667 15.0264L6.31723 5.89557C6.29636 5.51528 5.96938 5.22194 5.59025 5.24859L5.59372 5.24512Z" fill="#BEBEBE"/>
<path d="M12.1537 5.24566C11.7792 5.22479 11.4499 5.51234 11.4268 5.89264L10.9073 15.0235C10.8864 15.4038 11.174 15.7273 11.5543 15.7505H11.5926C11.9543 15.7505 12.2569 15.4687 12.2778 15.1L12.7972 5.96917C12.8181 5.58888 12.5306 5.26537 12.1503 5.24219L12.1537 5.24566Z" fill="#BEBEBE"/>
<path d="M8.87426 5.24512C8.49398 5.24512 8.18555 5.55354 8.18555 5.93383V15.1712C8.18555 15.5515 8.49398 15.86 8.87426 15.86C9.25455 15.86 9.56298 15.5515 9.56298 15.1712V5.93383C9.56298 5.55354 9.25455 5.24512 8.87426 5.24512Z" fill="#BEBEBE"/>
</svg>
