<svg width="24" height="24" viewBox="0 0 24 24" fill="none" xmlns="http://www.w3.org/2000/svg">
<path d="M6.375 2C6.54076 2 6.69973 2.06585 6.81694 2.18306C6.93415 2.30027 7 2.45924 7 2.625V3.25H17V2.625C17 2.45924 17.0658 2.30027 17.1831 2.18306C17.3003 2.06585 17.4592 2 17.625 2C17.7908 2 17.9497 2.06585 18.0669 2.18306C18.1842 2.30027 18.25 2.45924 18.25 2.625V3.25H19.5C20.163 3.25 20.7989 3.51339 21.2678 3.98223C21.7366 4.45107 22 5.08696 22 5.75V19.5C22 20.163 21.7366 20.7989 21.2678 21.2678C20.7989 21.7366 20.163 22 19.5 22H4.5C3.83696 22 3.20107 21.7366 2.73223 21.2678C2.26339 20.7989 2 20.163 2 19.5V5.75C2 5.08696 2.26339 4.45107 2.73223 3.98223C3.20107 3.51339 3.83696 3.25 4.5 3.25H5.75V2.625C5.75 2.45924 5.81585 2.30027 5.93306 2.18306C6.05027 2.06585 6.20924 2 6.375 2V2ZM4.5 4.5C4.16848 4.5 3.85054 4.6317 3.61612 4.86612C3.3817 5.10054 3.25 5.41848 3.25 5.75V7H20.75V5.75C20.75 5.41848 20.6183 5.10054 20.3839 4.86612C20.1495 4.6317 19.8315 4.5 19.5 4.5H4.5ZM20.75 8.25H3.25V19.5C3.25 19.8315 3.3817 20.1495 3.61612 20.3839C3.85054 20.6183 4.16848 20.75 4.5 20.75H19.5C19.8315 20.75 20.1495 20.6183 20.3839 20.3839C20.6183 20.1495 20.75 19.8315 20.75 19.5V8.25Z" fill="#1A1A1A"/>
</svg>