<svg width="60" height="40" viewBox="0 0 60 40" fill="none" xmlns="http://www.w3.org/2000/svg">
<rect width="60" height="40" rx="5" fill="#0F0F0F"/>
<path fill-rule="evenodd" clip-rule="evenodd" d="M37.9664 16.482C37.7187 16.5295 37.6168 16.5641 37.3726 16.684C37.1367 16.7998 37.0574 16.8521 36.8529 17.0268C36.5571 17.2795 36.2641 17.7455 36.1415 18.1584C36.0952 18.3146 36.0864 18.4141 36.0859 18.789C36.0853 19.2992 36.1179 19.4467 36.3211 19.8513C36.5958 20.3983 37.1042 20.8342 37.6811 21.0171C37.7814 21.0489 37.867 21.0856 37.8714 21.0986C37.8757 21.1117 37.5196 21.4866 37.0801 21.9317L36.2809 22.7411V23.2594V23.7777H38.5069H40.7328V23.254V22.7302H39.2794C38.2378 22.7302 37.826 22.7221 37.826 22.7014C37.826 22.6855 38.3651 22.1314 39.0241 21.4701C39.8047 20.6867 40.2638 20.2058 40.3418 20.09C40.4925 19.8661 40.6364 19.5244 40.6908 19.2615C40.7688 18.8841 40.7374 18.36 40.6162 18.0191C40.3564 17.2882 39.6955 16.6911 38.9457 16.5098C38.7101 16.4529 38.195 16.4383 37.9664 16.482ZM43.1661 16.4841C42.2725 16.654 41.5637 17.4182 41.4411 18.3438C41.3647 18.9201 41.547 19.5146 41.9422 19.9788L42.1204 20.188L41.97 20.3575C41.6752 20.6896 41.49 21.0969 41.4372 21.5294C41.3859 21.9487 41.4968 22.4763 41.7146 22.8495C42.0019 23.3419 42.4959 23.7147 43.048 23.8557C43.3328 23.9285 43.8382 23.9294 44.1186 23.8577C44.489 23.763 44.8057 23.588 45.0715 23.3313C45.7859 22.6411 45.956 21.5914 45.4886 20.7565C45.4392 20.6682 45.3212 20.505 45.2263 20.3939C45.1314 20.2828 45.0537 20.1844 45.0537 20.1752C45.0537 20.1661 45.1293 20.0769 45.2217 19.9772C45.6119 19.5557 45.8085 18.9318 45.7353 18.3472C45.6638 17.7765 45.3647 17.2495 44.9209 16.9125C44.6773 16.7275 44.3994 16.5878 44.1407 16.5204C43.8756 16.4513 43.4265 16.4346 43.1661 16.4841ZM13.9081 16.5936C13.8985 16.6032 13.8906 18.2236 13.8906 20.1944V23.7777H14.4116C14.8624 23.7777 14.9347 23.7722 14.9484 23.7363C14.9572 23.7135 14.9643 22.1073 14.9643 20.167C14.9643 17.4579 14.957 16.6317 14.9329 16.6076C14.8989 16.5737 13.9411 16.5606 13.9081 16.5936ZM15.8185 16.6386C15.799 16.7164 15.8006 23.6364 15.8202 23.7188C15.8341 23.7775 15.8365 23.7777 16.3552 23.7777H16.8762L16.8696 20.1835L16.8629 16.5893L16.3487 16.5822L15.8344 16.5751L15.8185 16.6386ZM19.6955 16.5936C19.6859 16.6032 19.6781 18.2236 19.6781 20.1944V23.7777H20.2018C20.4899 23.7777 20.7267 23.7689 20.7281 23.7581C20.7295 23.7473 20.7346 22.1419 20.7394 20.1905C20.7455 17.7314 20.7397 16.6325 20.7206 16.6094C20.7001 16.5847 20.567 16.5762 20.203 16.5762C19.9335 16.5762 19.7051 16.584 19.6955 16.5936ZM27.4208 16.5936C27.4112 16.6032 27.4034 18.2237 27.4034 20.1948V23.7784L28.2699 23.7715L29.1365 23.7646L29.2936 23.4897C29.3799 23.3384 29.5125 23.1086 29.5883 22.979C29.664 22.8494 29.8882 22.4605 30.0866 22.1148C30.2849 21.7692 30.4915 21.4097 30.5456 21.3161C30.5997 21.2225 30.8532 20.7806 31.1091 20.3341C31.3649 19.8876 31.6067 19.4692 31.6463 19.4044C31.6859 19.3396 31.8187 19.1098 31.9415 18.8938C32.0642 18.6777 32.2436 18.3654 32.3403 18.1998C32.4369 18.0342 32.5396 17.8574 32.5685 17.807C32.5974 17.7566 32.761 17.4728 32.9321 17.1764C33.1032 16.8799 33.2432 16.6237 33.2432 16.6068C33.2432 16.5721 32.1255 16.562 32.0764 16.5962C32.0612 16.6068 32.0014 16.6979 31.9435 16.7988C31.8857 16.8996 31.569 17.4476 31.2398 18.0165C30.9106 18.5854 30.5391 19.2277 30.4144 19.4437C30.2896 19.6598 30.1228 19.9485 30.0435 20.0853C29.2987 21.372 28.6799 22.4504 28.6386 22.5338C28.581 22.6501 28.503 22.7564 28.4753 22.7564C28.4603 22.7564 28.4509 21.5584 28.4509 19.6663V16.5762H27.9446C27.6661 16.5762 27.4304 16.584 27.4208 16.5936ZM34.3178 16.5978C34.2929 16.606 34.2323 16.7025 34.0107 17.0868C33.9526 17.1877 33.8467 17.3703 33.7754 17.4927C33.4312 18.0841 33.2776 18.35 32.641 19.4568C32.2641 20.1121 31.8873 20.7662 31.8036 20.9102C31.72 21.0542 31.4499 21.5219 31.2035 21.9495L30.7554 22.727V23.2524V23.7777H33.1384H35.5215V23.254V22.7302H33.7669C32.1134 22.7302 32.0124 22.7276 32.0125 22.6844C32.0125 22.6592 32.0361 22.5999 32.0649 22.5527C32.1319 22.4428 32.4491 21.8954 32.7663 21.3423C32.9913 20.95 33.4812 20.1011 33.9979 19.208C34.1664 18.9168 34.5925 18.1749 35.1487 17.2047C35.2271 17.0678 35.3314 16.8763 35.3805 16.7791L35.4698 16.6024L35.2927 16.6011C35.1953 16.6003 34.9419 16.5974 34.7295 16.5945C34.5172 16.5916 34.3319 16.5931 34.3178 16.5978ZM38.1664 17.5106C38.0662 17.5271 37.825 17.6259 37.7082 17.6982C37.5485 17.7971 37.3238 18.042 37.2423 18.2061C37.0517 18.5897 37.0613 19.047 37.2677 19.4199C37.3741 19.6121 37.6279 19.853 37.8272 19.9507C38.4516 20.2571 39.2345 19.9909 39.5369 19.3695C39.7339 18.9644 39.7339 18.6136 39.5369 18.2085C39.2939 17.7093 38.7238 17.4189 38.1664 17.5106ZM43.3728 17.5159C43.0656 17.5809 42.7317 17.8468 42.5862 18.1423C42.5147 18.2876 42.501 18.3475 42.492 18.5545C42.4839 18.7379 42.4926 18.8307 42.5275 18.9369C42.6286 19.2436 42.8411 19.4824 43.1388 19.6234C43.2991 19.6993 43.3331 19.7056 43.5872 19.7054C43.8403 19.7052 43.876 19.6986 44.0352 19.6236C44.3322 19.4836 44.5459 19.2437 44.647 18.9369C44.7206 18.7133 44.6957 18.3681 44.5897 18.1416C44.4124 17.763 44.0679 17.523 43.6759 17.5049C43.5623 17.4997 43.4259 17.5047 43.3728 17.5159ZM43.3467 20.6737C43.0215 20.7633 42.706 21.0215 42.5719 21.3078C42.5071 21.446 42.5005 21.4881 42.5005 21.7618C42.5005 22.0506 42.5042 22.0711 42.5874 22.2401C42.7491 22.5685 43.1134 22.8334 43.4563 22.872C43.9706 22.9297 44.4782 22.5918 44.647 22.0794C44.6823 21.9722 44.6903 21.8829 44.6813 21.6997C44.6667 21.4036 44.593 21.23 44.3879 21.0085C44.2219 20.8292 44.0539 20.7306 43.8207 20.6756C43.6212 20.6286 43.5121 20.6282 43.3467 20.6737Z" fill="white"/>
</svg>
