<svg width="20" height="17" viewBox="0 0 20 17" fill="none" xmlns="http://www.w3.org/2000/svg">
<path fill-rule="evenodd" clip-rule="evenodd" d="M4.76399 0.0189781C4.74381 0.0306946 4.65025 0.0583104 4.55608 0.0803737C2.65621 0.525211 1.31429 1.57087 0.533093 3.21515C0.478864 3.32931 0.434493 3.43383 0.434493 3.44745C0.434493 3.46107 0.418471 3.51061 0.398854 3.5575C0.379261 3.60441 0.363509 3.64533 0.363851 3.64844C0.364194 3.65157 0.337361 3.73117 0.304192 3.82534C0.193925 4.13863 0.109634 4.52293 0.0280583 5.08424C-0.0150654 5.3809 -0.00660208 6.57173 0.0405821 6.8462C0.358519 8.6959 1.09287 9.96929 2.91615 11.8325C3.76877 12.7038 5.10732 13.8902 6.45352 14.9679C7.10588 15.4901 7.51163 15.7997 8.5309 16.5526C8.73189 16.7011 9.09845 16.8731 9.3318 16.9284C9.39579 16.9436 9.60079 16.9604 9.78735 16.9658C10.161 16.9765 10.2982 16.9534 10.6394 16.8224C10.9297 16.7109 11.4506 16.3447 12.6402 15.4157C14.1447 14.2409 15.5185 13.045 16.568 11.9964C18.2112 10.3548 19.0013 9.19267 19.3791 7.86131C19.4021 7.78059 19.4302 7.68703 19.4417 7.6534C19.4814 7.53706 19.5865 6.97707 19.6163 6.72314C19.637 6.54717 19.6515 6.48698 19.6631 6.52878C19.6724 6.56209 19.68 6.27566 19.68 5.89225C19.68 5.50861 19.6712 5.22262 19.6604 5.25627C19.6418 5.31417 19.6407 5.31317 19.6384 5.23776C19.6288 4.92501 19.4775 4.21781 19.315 3.72608C19.1392 3.19404 18.7709 2.49491 18.4728 2.12739C18.2981 1.91204 17.9772 1.57432 17.7827 1.40109C17.5647 1.20707 17.1028 0.863964 17.0205 0.835051C16.9993 0.827591 16.9655 0.807509 16.9453 0.790387C16.8396 0.700788 16.1831 0.405453 15.8446 0.295283C15.1143 0.0576011 14.6393 -0.0129673 13.8755 0.0027608C13.442 0.0116644 13.3459 0.0215464 13.0316 0.089473C11.9371 0.326005 11.061 0.799168 10.2754 1.57794C10.0427 1.80863 9.95239 1.88259 9.88889 1.89451C9.75663 1.91931 9.64504 1.86711 9.52925 1.72627C9.18272 1.30477 8.49949 0.794765 7.89492 0.506377C7.59974 0.365582 6.95359 0.156568 6.62298 0.0949277C6.46827 0.0660889 6.29822 0.033263 6.24507 0.0219867C6.11594 -0.00543345 4.81064 -0.00807517 4.76399 0.0189781ZM5.10644 1.67593C5.0728 1.68219 4.94622 1.70364 4.82514 1.72358C4.40393 1.79292 3.79328 2.04349 3.3865 2.3139C2.53877 2.87747 1.97442 3.73246 1.75917 4.7793C1.67718 5.178 1.65199 5.43939 1.65186 5.89225C1.65164 6.75695 1.82133 7.49396 2.19535 8.25268C2.38269 8.63272 2.80989 9.26754 3.06881 9.55067C3.10653 9.59191 3.20177 9.70198 3.28049 9.79527C3.86091 10.4832 4.84852 11.4508 5.91285 12.3743C5.99812 12.4483 6.07996 12.5201 6.09471 12.534C6.10948 12.5479 6.23162 12.6512 6.36615 12.7635C6.67777 13.0238 6.79719 13.1245 6.84313 13.1655C6.92563 13.2393 7.93323 14.0464 8.28629 14.3214C8.79221 14.7155 9.50114 15.2359 9.6062 15.2902C9.7228 15.3505 9.93629 15.3481 10.0537 15.2851C10.1732 15.2211 10.8753 14.7047 11.4295 14.2733C13.8449 12.3929 15.6603 10.7144 16.7373 9.36563C17.451 8.47194 17.8394 7.58148 17.9752 6.52822C18.0133 6.23261 18.0128 5.5373 17.9742 5.21958C17.8647 4.31778 17.55 3.57941 17.0087 2.95487C16.5943 2.47674 15.9689 2.06962 15.3064 1.84669C14.9411 1.72375 14.6714 1.6804 14.1873 1.66685C13.491 1.64736 13.0267 1.73833 12.4781 2.00174C12.0602 2.20237 11.774 2.4059 11.405 2.76496C11.2301 2.93513 11.0478 3.10784 10.9998 3.14879C10.8454 3.28053 10.5599 3.41641 10.2933 3.48502C10.0634 3.54417 10.0092 3.54938 9.75514 3.5368C9.55752 3.527 9.41311 3.50466 9.27459 3.46244C8.8955 3.34694 8.7504 3.2504 8.31075 2.82114C7.90965 2.42953 7.67057 2.25033 7.29114 2.05692C6.71684 1.76418 6.37958 1.6849 5.6568 1.67275C5.38773 1.66822 5.14007 1.66967 5.10644 1.67593ZM0.00499216 5.91671C0.00499216 6.30012 0.0083677 6.45696 0.0125015 6.26527C0.0166353 6.07355 0.0166353 5.75984 0.0125015 5.56814C0.0083677 5.37642 0.00499216 5.53329 0.00499216 5.91671Z" fill="#929292"/>
<ellipse cx="6.5" cy="7" rx="5.5" ry="6" fill="#929292"/>
<ellipse cx="13.5" cy="7" rx="5.5" ry="6" fill="#929292"/>
<ellipse cx="9.5" cy="10" rx="5.5" ry="6" fill="#929292"/>
</svg>
