<svg width="15" height="20" viewBox="0 0 15 20" fill="none" xmlns="http://www.w3.org/2000/svg">
<path d="M7.50007 10.1963C6.23444 10.1963 5.02 9.69589 4.12503 8.80528C3.23005 7.91467 2.72732 6.70595 2.72732 5.44631C2.72732 4.18667 3.23016 2.97806 4.12503 2.08734C5.01989 1.19663 6.2344 0.696289 7.50007 0.696289C8.76574 0.696289 9.98013 1.19674 10.8751 2.08734C11.7701 2.97795 12.2728 4.18667 12.2728 5.44631C12.2711 6.70591 11.7683 7.91283 10.8734 8.80354C9.97849 9.69417 8.76569 10.1946 7.50007 10.1963ZM7.50007 2.05351C6.59582 2.05351 5.72905 2.4106 5.08982 3.04761C4.44977 3.68377 4.09097 4.54639 4.09097 5.44638C4.09097 6.34636 4.44977 7.20896 5.08982 7.84514C5.72903 8.48215 6.59577 8.83924 7.50007 8.83924C8.40436 8.83924 9.27109 8.48215 9.91031 7.84514C10.5504 7.20898 10.9092 6.34636 10.9092 5.44638C10.9083 4.54728 10.5487 3.68464 9.90946 3.04848C9.27026 2.41232 8.40349 2.05436 7.50007 2.05351ZM7.50007 19.6963C5.39837 19.6954 3.30008 19.508 1.23238 19.1348C0.516488 19.0059 -0.002565 18.3841 9.53502e-06 17.6606C0.00171396 15.8615 0.721032 14.137 1.99944 12.8648C3.27785 11.5925 5.01056 10.8766 6.81819 10.8749H8.18182C9.98949 10.8766 11.7222 11.5925 13.0006 12.8648C14.279 14.1371 14.9983 15.8616 15 17.6606C15.0017 18.3816 14.4852 19.0016 13.7727 19.1322C11.7026 19.5063 9.60355 19.6954 7.50007 19.6963ZM6.81825 12.232C5.37195 12.2337 3.98539 12.8063 2.96343 13.8241C1.94071 14.8411 1.36543 16.2212 1.36373 17.6606C1.36543 17.7259 1.41146 17.7819 1.47538 17.7963C5.46154 18.5122 9.54371 18.5122 13.529 17.7963C13.5929 17.7827 13.6381 17.7259 13.6364 17.6606C13.6347 16.2212 13.0594 14.8412 12.0367 13.8241C11.0148 12.8063 9.62818 12.2337 8.18186 12.232H6.81825Z" fill="#929292"/>
</svg>
