<svg width="94" height="395" viewBox="0 0 94 395" fill="none" xmlns="http://www.w3.org/2000/svg">
<path d="M29.3441 61.9823C13.1265 61.9823 -1.98609e-06 75.1087 -1.27719e-06 91.3264C-5.68294e-07 107.544 13.1309 120.545 29.3442 120.545C43.2053 120.545 54.9699 110.797 57.8729 97.706L78.051 117.888L91.3701 117.888L91.3701 61.9823L77.7777 61.9823L77.7777 98.3242L50.0598 70.6063C44.7823 65.3288 37.4485 61.9823 29.3352 61.9823L29.3441 61.9823ZM44.9705 91.3264C44.9705 99.946 37.9503 107.083 29.3441 107.083C20.738 107.083 13.5879 99.9415 13.5879 91.3264C13.5879 82.7113 20.5991 75.7001 29.3441 75.7001C38.0892 75.7001 44.9705 82.7158 44.9705 91.3264Z" fill="#222222"/>
<path d="M46.5743 8.75894C41.8165 3.44116 34.9935 0.000502267 27.0638 0.000502614C12.114 0.000503267 -1.83648e-06 12.1145 -1.183e-06 27.0643C-5.2952e-07 42.0141 12.114 54.1281 27.0638 54.1281C34.9935 54.1281 41.8165 50.6875 46.5743 45.3697C51.3321 50.6875 58.1552 54.1281 66.0848 54.1281C81.1646 54.1281 93.1486 42.0097 93.1486 27.0643C93.1486 12.1189 81.1601 0.000500249 66.0848 0.000500908C58.1552 0.000501255 51.3321 3.44116 46.5743 8.75894ZM79.5607 27.0688C79.5607 34.416 73.4321 40.5447 66.0848 40.5447C58.7376 40.5447 52.6089 34.416 52.6089 27.0688C52.6089 19.7216 58.7376 13.5929 66.0848 13.5929C73.4321 13.5929 79.5607 19.7216 79.5607 27.0688ZM40.5397 26.9434C40.5397 34.4205 34.4066 40.5447 27.1937 40.5447C19.9809 40.5447 13.5924 34.416 13.5924 26.9434C13.5924 19.4707 19.7166 13.5974 27.1937 13.5974C34.6709 13.5974 40.5397 19.726 40.5397 26.9434Z" fill="#222222"/>
<path d="M1.77392 142.242L78.1225 186.312L91.3744 186.312L91.3744 126.606L77.7865 126.606L77.7865 170.403L1.77392 126.53L1.77392 142.242Z" fill="#222222"/>
<path d="M1.77392 169.901L78.3106 214.087L1.77393 214.087L1.77393 227.679L91.3744 227.679L91.3744 221.631L91.3789 221.631L91.3789 205.938L1.77392 154.207L1.77392 169.901Z" fill="#222222"/>
<path d="M1.77393 309.702L1.77393 323.295L91.3789 323.295L91.3789 309.702L1.77393 309.702Z" fill="#222222"/>
<path d="M1.77393 357.508L1.77393 371.1L91.3789 371.1L91.3789 357.508L1.77393 357.508Z" fill="#222222"/>
<path d="M1.77393 381.408L1.77393 395.001L91.3789 395.001L91.3789 381.408L1.77393 381.408Z" fill="#222222"/>
</svg>
