<svg width="18" height="18" viewBox="0 0 18 18" fill="none" xmlns="http://www.w3.org/2000/svg">
<path d="M0.410526 0.410527C0.957876 -0.136819 1.84535 -0.136842 2.39272 0.410527L9 7.01782L15.6073 0.410527C16.1546 -0.136837 17.0421 -0.136847 17.5895 0.410527C18.1368 0.957877 18.1368 1.84533 17.5895 2.3927L10.9822 8.99999L17.5895 15.6073C18.1368 16.1546 18.1368 17.0421 17.5895 17.5895C17.0421 18.1369 16.1546 18.1368 15.6073 17.5895L9 10.9822L2.39272 17.5895C1.84535 18.1368 0.957881 18.1368 0.410531 17.5895C-0.136848 17.0421 -0.136838 16.1546 0.410531 15.6073L7.01782 8.99999L0.410531 2.3927C-0.136834 1.84534 -0.136852 0.957909 0.410526 0.410527Z" fill="#222222"/>
</svg>
