<svg width="22" height="22" viewBox="0 0 22 22" fill="none" xmlns="http://www.w3.org/2000/svg">
<path fill-rule="evenodd" clip-rule="evenodd" d="M0.357422 10.7816V21.5631H11.139H21.9205V10.7816V0H11.139H0.357422V10.7816ZM1.38969 3.58189V6.13149L1.92235 5.21632C2.27963 4.60235 2.81757 3.9386 3.55679 3.19937C4.29602 2.46015 4.95977 1.92222 5.57375 1.56494L6.48891 1.03228H3.9393H1.38969V3.58189ZM9.02408 1.21464C7.21117 1.61895 5.65723 2.48974 4.24474 3.89295C3.06668 5.06309 2.34167 6.23679 1.83127 7.79942C1.37386 9.19965 1.25412 11.2392 1.54614 12.6517C2.18787 15.7548 4.17914 18.2728 7.05827 19.622C9.9038 20.9555 13.4061 20.7842 16.054 19.1819C18.4171 17.7521 19.8687 15.8005 20.6388 13.0182C20.9392 11.9329 20.8994 9.38443 20.5638 8.20866C19.6543 5.02306 17.2848 2.54789 14.1211 1.47856C13.1367 1.14583 12.8765 1.10683 11.4257 1.07368C10.2784 1.04753 9.59275 1.08779 9.02408 1.21464ZM16.461 1.43177C18.1154 2.42792 19.3623 3.64726 20.3228 5.20795L20.8882 6.12668V3.57948V1.03228H18.343H15.7977L16.461 1.43177ZM4.9476 9.26204C3.69969 9.88898 3.71702 11.7051 4.97639 12.2768C5.58062 12.5511 5.79877 12.5521 6.38992 12.2836C7.65446 11.7095 7.68096 9.8884 6.43408 9.26204C6.21455 9.1517 5.88009 9.06145 5.69084 9.06145C5.50159 9.06145 5.16713 9.1517 4.9476 9.26204ZM10.3611 9.25183C9.3591 9.74572 9.13397 11.007 9.89349 11.872C11.1641 13.3192 13.4789 11.7896 12.6401 10.0569C12.22 9.1891 11.2114 8.83273 10.3611 9.25183ZM15.7842 9.26767C15.2778 9.59054 15.0298 9.91054 14.9245 10.3774C14.7175 11.2954 15.3811 12.2894 16.3052 12.4455C17.2613 12.607 18.2504 11.7615 18.25 10.7834C18.2498 10.2771 17.9418 9.66166 17.5418 9.3686C17.0972 9.04275 16.2165 8.99217 15.7842 9.26767ZM5.1106 10.3743C4.94738 10.6234 4.93981 10.7208 5.06093 11.0131C5.29858 11.5871 5.91243 11.6214 6.26685 11.0806C6.42891 10.8332 6.43362 10.7496 6.30138 10.4722C6.18071 10.2193 6.05788 10.1433 5.7256 10.1155C5.37795 10.0866 5.26911 10.1324 5.1106 10.3743ZM10.631 10.2736C10.2178 10.6868 10.567 11.4697 11.1645 11.4697C11.4537 11.4697 11.8272 11.0597 11.8272 10.742C11.8272 10.189 11.0284 9.87626 10.631 10.2736ZM15.9972 10.389C15.5811 11.0241 16.2872 11.7302 16.9224 11.3141C17.2659 11.0889 17.3245 10.5604 17.0377 10.2736C16.7509 9.98682 16.2224 10.0454 15.9972 10.389ZM1.38969 17.9836V20.5308H3.91304C5.30088 20.5308 6.43639 20.5061 6.43639 20.4758C6.43639 20.4456 6.21708 20.3103 5.94891 20.175C4.52552 19.4575 2.91849 17.9194 1.95171 16.3492L1.38969 15.4364V17.9836ZM20.3788 16.2105C19.4443 17.809 18.1613 19.0899 16.5529 20.0302L15.7947 20.4735L18.3009 20.5045C19.6793 20.5214 20.8264 20.5162 20.8501 20.4926C20.8736 20.469 20.8789 19.3219 20.8619 17.9435L20.8309 15.4372L20.3788 16.2105Z" fill="black"/>
</svg>
