<svg width="30" height="19" viewBox="0 0 30 19" fill="none" xmlns="http://www.w3.org/2000/svg">
<path fill-rule="evenodd" clip-rule="evenodd" d="M0.667141 0.0690167C0.486034 0.10377 0.421459 0.179228 0.459883 0.311475C0.490507 0.417111 1.32631 4.56848 2.31718 9.53659L4.11884 18.5696L14.7918 18.5403L25.4646 18.5111L27.2938 9.36214C28.2999 4.33014 29.0974 0.187612 29.0661 0.1563C29.0348 0.124987 28.8114 0.0871363 28.5695 0.0721109L28.1297 0.0448087L27.697 2.16671C27.459 3.33376 27.2618 4.30146 27.2588 4.31729C27.234 4.44655 26.3935 4.29057 25.9155 4.06794C24.8087 3.55261 23.9717 2.42489 23.7595 1.16311C23.6775 0.675645 23.6775 0.675644 23.1715 0.675644H22.6654L22.6653 1.10576C22.6651 2.13437 21.5713 3.61706 20.4288 4.13733C19.5667 4.52994 18.3499 4.50895 17.4897 4.08652C16.3276 3.51579 15.3248 2.09331 15.3248 1.01538C15.3248 0.690445 15.3028 0.675644 14.8217 0.675644H14.3185L14.242 1.18571C14.0602 2.39852 13.1226 3.64746 12.0125 4.1558C11.3884 4.44163 10.0215 4.48865 9.33023 4.24801C8.21846 3.86102 7.19881 2.6239 6.92928 1.33515L6.79129 0.675644H6.31403H5.8369L5.77003 1.24019C5.58984 2.76165 4.12974 4.25374 2.7068 4.37051L2.30662 4.40331L1.85907 2.19539C1.3715 -0.209361 1.44422 -0.0796311 0.667141 0.0690167ZM6 3.24957C5.34427 4.28587 4.28755 5.03575 3.14196 5.27753C2.80865 5.34784 2.52363 5.41598 2.50838 5.42894C2.46468 5.46633 4.87102 17.417 4.94707 17.5401C4.99019 17.6099 8.61567 17.6509 14.7513 17.6509C20.8869 17.6509 24.5124 17.6099 24.5555 17.5401C24.6316 17.417 27.0379 5.46633 26.9942 5.42894C26.9789 5.41598 26.6939 5.34784 26.3606 5.27753C25.2029 5.03322 24.0963 4.24033 23.505 3.23157L23.2139 2.7347L22.9009 3.2249C22.4542 3.92433 21.6063 4.6623 20.8503 5.0096C19.979 5.4099 18.5011 5.49809 17.6027 5.20343C16.5132 4.84604 15.5514 4.09891 15.0176 3.19532C14.9071 3.00813 14.7889 2.855 14.7552 2.85512C14.7215 2.85523 14.5436 3.09335 14.3597 3.38434C13.9033 4.10659 12.8997 4.86773 12.0149 5.16238C11.0009 5.50005 9.57912 5.43547 8.65225 5.0096C7.89582 4.66218 7.04684 3.92078 6.61718 3.23259L6.31599 2.75007L6 3.24957ZM8.87201 8.9818C8.33454 9.17518 8.13095 9.34195 7.9097 9.76988C7.16359 11.2127 8.71453 12.7939 10.1552 12.0591C10.6872 11.7879 10.9799 11.3564 11.0493 10.741C11.1887 9.50517 10.0266 8.56625 8.87201 8.9818ZM14.2182 8.94086C13.7189 9.09043 13.1857 9.73319 13.0897 10.3012C12.847 11.7381 14.5611 12.7864 15.7589 11.9335C17.2886 10.8444 16.0293 8.39834 14.2182 8.94086ZM19.609 8.94442C19.1387 9.08068 18.568 9.73811 18.4709 10.2554C18.3654 10.8179 18.6839 11.6126 19.1474 11.9432C19.4194 12.1373 19.6704 12.2027 20.1421 12.2027C20.6137 12.2027 20.8648 12.1373 21.1367 11.9432C21.6002 11.6126 21.9187 10.8179 21.8132 10.2554C21.7111 9.71116 21.1418 9.08217 20.6201 8.9373C20.1368 8.80311 20.0961 8.80334 19.609 8.94442ZM8.90172 10.0808C8.6261 10.3565 8.61062 10.6298 8.85091 10.9728C9.04991 11.2572 9.67502 11.3262 9.91106 11.0902C10.1471 10.8541 10.0781 10.229 9.79372 10.03C9.45066 9.78973 9.17734 9.80522 8.90172 10.0808ZM14.2925 10.0808C13.8408 10.5325 14.1367 11.2278 14.7808 11.2278C15.4125 11.2278 15.6957 10.388 15.1845 10.03C14.8414 9.78973 14.5681 9.80522 14.2925 10.0808ZM19.6833 10.0808C19.235 10.5291 19.5267 11.2278 20.162 11.2278C20.7776 11.2278 21.0711 10.3772 20.5753 10.03C20.2322 9.78973 19.9589 9.80522 19.6833 10.0808Z" fill="black"/>
</svg>
