<svg width="30" height="15" viewBox="0 0 30 15" fill="none" xmlns="http://www.w3.org/2000/svg">
<path fill-rule="evenodd" clip-rule="evenodd" d="M13.7253 0.182847C12.6415 0.44516 11.5057 1.1096 10.6505 1.98164L9.88628 2.76079L9.22984 2.30097C7.89064 1.36286 6.77946 1.14814 3.26295 1.14814H0.919922V7.11241V13.0767L2.38231 13.0747C3.20882 13.0736 4.18319 13.001 4.62317 12.9077C5.62333 12.6958 6.75952 12.1342 7.45711 11.5069C7.75991 11.2347 8.02577 11.0122 8.04802 11.0123C8.07027 11.0123 8.43052 11.335 8.84848 11.7292C9.76617 12.5947 11.0163 13.3299 12.3642 13.7969C13.1952 14.0846 13.5976 14.1525 14.741 14.1977C15.5844 14.2311 16.3732 14.199 16.7783 14.1148C17.8804 13.8858 19.0014 13.2494 19.9289 12.3263L20.7586 11.5008L21.1333 11.7819C21.7829 12.2689 22.8288 12.7449 23.616 12.9117C24.1414 13.0231 25.1973 13.0734 27.0423 13.0747L29.709 13.0767V7.09577V1.11476L28.0172 1.18289C25.6368 1.27878 24.6133 1.60773 23.2354 2.72006L22.5543 3.27004L21.9598 2.675C19.9069 0.620306 16.3568 -0.454183 13.7253 0.182847ZM14.3395 1.04182C13.9925 1.10054 13.34 1.32937 12.8894 1.55005C10.9652 2.49274 9.7608 4.4988 9.75357 6.77291C9.75105 7.58749 9.48816 8.59246 9.04979 9.46371L8.70352 10.1519L9.56076 10.965C10.9431 12.2761 12.7332 13.0653 14.741 13.2489C16.3155 13.3929 18.0413 12.7869 19.1602 11.697C20.2651 10.6207 20.7126 9.56074 20.8772 7.62912C21.0015 6.16983 21.1168 5.70851 21.5936 4.76341L21.9395 4.07739L21.0751 3.26202C19.2925 1.58044 16.5314 0.670198 14.3395 1.04182ZM1.95219 7.11241V12.0444H2.96039C4.74405 12.0444 5.98128 11.5628 7.12688 10.4224C8.24242 9.31196 8.82417 7.77834 8.83174 5.92827C8.833 5.62398 8.96343 4.98959 9.1216 4.51841L9.40912 3.66185L9.09293 3.38497C8.63907 2.98765 7.50032 2.45398 6.79253 2.30682C6.45818 2.23731 5.23242 2.18042 4.06847 2.18042H1.95219V7.11241ZM26.268 2.30555C25.3843 2.4769 24.1403 3.16991 23.4531 3.87369C22.3767 4.97616 22.0459 5.84855 21.8034 8.22428C21.7377 8.86739 21.583 9.65961 21.4595 9.98477L21.2348 10.5759L21.5435 10.8456C22.0263 11.2674 22.8393 11.6766 23.5767 11.8686C24.0702 11.9971 24.8465 12.0444 26.4642 12.0444H28.6767V7.11241V2.18042L27.7304 2.19303C27.2101 2.19992 26.5519 2.25061 26.268 2.30555Z" fill="black"/>
</svg>
